<?xml version="1.0" encoding="utf-8"?>
<svg xmlns="http://www.w3.org/2000/svg"
	xmlns:xlink="http://www.w3.org/1999/xlink"
	width="9px" height="16px" viewBox="0 0 9 16">
<path fillRule="evenodd" d="M 8.71 1.69C 8.71 1.69 2.4 8 2.4 8 2.4 8 8.71 14.31 8.71 14.31 9.1 14.7 9.1 15.33 8.71 15.71 8.33 16.1 7.7 16.1 7.31 15.71 7.31 15.71 0.35 8.76 0.35 8.76 0.33 8.74 0.31 8.73 0.29 8.71 0.09 8.52-0.01 8.26-0 8-0.01 7.74 0.09 7.48 0.29 7.29 0.31 7.27 0.33 7.26 0.35 7.24 0.35 7.24 7.31 0.29 7.31 0.29 7.7-0.1 8.33-0.1 8.71 0.29 9.1 0.67 9.1 1.3 8.71 1.69Z" fill="rgb(71,71,71)" opacity="0.50"/></svg>